# xmcd
#
# Track frame offsets: 
#        150
#        26348
#        48470
#        68902
#        94024
#        128771
#        145297
#        172063
#        180546
#        198903
#        233214
#        247724
#        266683
#        301158
#
# Disc length: 4252 seconds
#
# Revision: 1
# Processed by: cddbd v1.5.2PL0 Copyright (c) Steve Scherf et al.
# Submitted via: ExactAudioCopyFreeDBPlugin 1.0
#
DISCID=b9109a0e
DTITLE=The S.O.S. Band - S.O.S. (Expanded Edition)
DYEAR=1980
DGENRE=Soul
TTITLE0=S.O.S. (Dit Dit Dit Dash Dash Dash Dit Dit Dit)
TTITLE1=What's Wrong With Our Love Affair?
TTITLE2=Open Letter
TTITLE3=Love Won't Wait For Love
TTITLE4=Take Your Time (Do It Right)
TTITLE5=I'm In Love
TTITLE6=Take Love Where You Find It
TTITLE7=S.O.S. [Reprise]
TTITLE8=S.O.S. (Dit Dit Dit Dash Dash Dash Dit Dit Dit) [Edit]
TTITLE9=S.O.S. (Dit Dit Dit Dash Dash Dash Dit Dit Dit) [Special Disco
TTITLE9=Mix]
TTITLE10=Take Your Time (Do It Right) [Part 1]
TTITLE11=Take Your Time (Do It Right) [Part 2]
TTITLE12=Take Your Time (Do It Right) [Long Version]
TTITLE13=What's Wrong With Our Love Affair? [Edit]
EXTD=YEAR: 2013
EXTT0=
EXTT1=
EXTT2=
EXTT3=
EXTT4=
EXTT5=
EXTT6=
EXTT7=
EXTT8=
EXTT9=
EXTT10=
EXTT11=
EXTT12=
EXTT13=
PLAYORDER=
